# xmcd CD database file
#
# Track frame offsets:
#	150
#	23922
#	54145
#	79500
#	107847
#	144355
#	176230
#	200285
#	227647
#	256487
#
# Disc length: 3759 seconds
#
# Revision: 2
# Processed by: cddbd v1.5.1PL2 Copyright (c) Steve Scherf et al.
# Submitted via: CDex 1.51
#
DISCID=7b0ead0a
DTITLE=Horace Silver - The Hardbop Grandpop
DYEAR=1996
DGENRE=Jazz
TTITLE0=I Want You
TTITLE1=The Hippest Cat In Hollywood
TTITLE2=Gratitude
TTITLE3=Hawkin'
TTITLE4=I Got The Blues In Santa Cruz
TTITLE5=We've Got Silver At Six
TTITLE6=The Hardbop Grandpop
TTITLE7=The Lady From Johannesburg
TTITLE8=Serenade To A Teakettle
TTITLE9=Diggin' On Dexter
EXTD=YEAR: 1996
EXTT0=
EXTT1=
EXTT2=
EXTT3=
EXTT4=
EXTT5=
EXTT6=
EXTT7=
EXTT8=
EXTT9=
PLAYORDER=
